<?xml version="1.0" encoding="UTF-8" standalone="no"?>
<svg
   xmlns:dc="http://purl.org/dc/elements/1.1/"
   xmlns:cc="http://creativecommons.org/ns#"
   xmlns:rdf="http://www.w3.org/1999/02/22-rdf-syntax-ns#"
   xmlns:svg="http://www.w3.org/2000/svg"
   xmlns="http://www.w3.org/2000/svg"
   xmlns:sodipodi="http://sodipodi.sourceforge.net/DTD/sodipodi-0.dtd"
   xmlns:inkscape="http://www.inkscape.org/namespaces/inkscape"
   sodipodi:docname="art.svg"
   inkscape:version="1.0beta2 (2b71d25, 2019-12-03)"
   id="svg8"
   version="1.1"
   viewBox="0 0 396.87499 705.90835"
   height="2668"
   width="1500">
  <defs
     id="defs2" />
  <sodipodi:namedview
     inkscape:window-maximized="0"
     inkscape:window-y="23"
     inkscape:window-x="0"
     inkscape:window-height="814"
     inkscape:window-width="1440"
     inkscape:snap-global="false"
     units="px"
     showgrid="false"
     inkscape:document-rotation="0"
     inkscape:current-layer="layer1"
     inkscape:document-units="mm"
     inkscape:cy="304.81499"
     inkscape:cx="1314.6668"
     inkscape:zoom="1.4"
     inkscape:pageshadow="2"
     inkscape:pageopacity="0.0"
     borderopacity="1.0"
     bordercolor="#666666"
     pagecolor="#ffffff"
     id="base" />
  <metadata
     id="metadata5">
    <rdf:RDF>
      <cc:Work
         rdf:about="">
        <dc:format>image/svg+xml</dc:format>
        <dc:type
           rdf:resource="http://purl.org/dc/dcmitype/StillImage" />
        <dc:title></dc:title>
      </cc:Work>
    </rdf:RDF>
  </metadata>
  <g
     id="layer1"
     inkscape:groupmode="layer"
     inkscape:label="Layer 1">
    <rect
       y="3.7797618"
       x="1.5119048"
       height="705.24762"
       width="398.38687"
       id="rect835"
       style="fill:#2a2a2a;fill-opacity:1;stroke-width:0.291898" />
    <rect
       ry="9.3420458"
       y="75.753716"
       x="3.844213"
       height="54.353722"
       width="35.712971"
       id="rect838"
       style="fill:#007359;fill-opacity:1;stroke:#b0b0b0;stroke-width:1.32291667;stroke-miterlimit:4;stroke-dasharray:none;stroke-opacity:1" />
    <rect
       style="fill:#007359;fill-opacity:1;stroke:#b0b0b0;stroke-width:1.32291667;stroke-miterlimit:4;stroke-dasharray:none;stroke-opacity:1"
       id="rect840"
       width="35.712971"
       height="54.353722"
       x="43.901997"
       y="75.753716"
       ry="9.3420458" />
    <rect
       style="fill:#007359;fill-opacity:1;stroke:#b0b0b0;stroke-width:1.32291667;stroke-miterlimit:4;stroke-dasharray:none;stroke-opacity:1"
       id="rect846"
       width="35.712971"
       height="54.353722"
       x="83.158318"
       y="75.753716"
       ry="9.3420458" />
    <rect
       ry="9.3420458"
       y="75.753716"
       x="122.05592"
       height="54.353722"
       width="35.712971"
       id="rect848"
       style="fill:#007359;fill-opacity:1;stroke:#b0b0b0;stroke-width:1.32291667;stroke-miterlimit:4;stroke-dasharray:none;stroke-opacity:1" />
    <rect
       style="fill:#007359;fill-opacity:1;stroke:#b0b0b0;stroke-width:1.32291667;stroke-miterlimit:4;stroke-dasharray:none;stroke-opacity:1"
       id="rect850"
       width="35.712971"
       height="54.353722"
       x="161.52045"
       y="75.753716"
       ry="9.3420458" />
    <rect
       ry="9.3420458"
       y="75.753716"
       x="201.57826"
       height="54.353722"
       width="35.712971"
       id="rect852"
       style="fill:#007359;fill-opacity:1;stroke:#b0b0b0;stroke-width:1.32291667;stroke-miterlimit:4;stroke-dasharray:none;stroke-opacity:1" />
    <rect
       ry="9.3420458"
       y="75.753716"
       x="241.58043"
       height="54.353722"
       width="35.712971"
       id="rect854"
       style="fill:#007359;fill-opacity:1;stroke:#b0b0b0;stroke-width:1.32291667;stroke-miterlimit:4;stroke-dasharray:none;stroke-opacity:1" />
    <rect
       style="fill:#007359;fill-opacity:1;stroke:#b0b0b0;stroke-width:1.32291667;stroke-miterlimit:4;stroke-dasharray:none;stroke-opacity:1"
       id="rect856"
       width="35.712971"
       height="54.353722"
       x="281.47202"
       y="75.753716"
       ry="9.3420458" />
    <rect
       style="fill:#007359;fill-opacity:1;stroke:#b0b0b0;stroke-width:1.32291667;stroke-miterlimit:4;stroke-dasharray:none;stroke-opacity:1"
       id="rect876"
       width="35.712971"
       height="54.353722"
       x="320.34503"
       y="75.753716"
       ry="9.3420458" />
    <g
       id="g919">
      <rect
         style="fill:#007359;fill-opacity:1;stroke:#a8a8a8;stroke-width:1.32291667;stroke-miterlimit:4;stroke-dasharray:none;stroke-opacity:1"
         id="rect878"
         width="35.712971"
         height="54.353722"
         x="360.02539"
         y="75.753716"
         ry="9.3420458" />
      <path
         style="fill:#008466;stroke:#a8a8a8;stroke-width:1.42026;stroke-linecap:butt;stroke-linejoin:miter;stroke-miterlimit:4;stroke-dasharray:none;stroke-opacity:1;fill-opacity:1"
         d="m 372.10851,110.18451 c -15.30301,-1.08904 -10.42231,-15.776659 -0.92547,-14.952046 -0.37838,-21.592222 13.34978,-20.755691 14.4133,-0.421183 9.35511,2.16153 12.62232,12.351469 -10e-6,15.794419 -1.39264,19.94184 -14.21089,18.38432 -13.48782,-0.42119 z"
         id="path880"
         inkscape:connector-curvature="0"
         sodipodi:nodetypes="ccccc" />
      <path
         sodipodi:nodetypes="ccccc"
         inkscape:connector-curvature="0"
         id="path880-7"
         d="m 364.4046,88.524862 c -3.78,-0.214679 -2.57441,-3.109997 -0.22859,-2.947444 -0.0935,-4.256399 3.29753,-4.091497 3.56023,-0.08303 2.3108,0.426095 3.11784,2.434801 -1e-5,3.113498 -0.34399,3.931065 -3.51023,3.624037 -3.33163,-0.08303 z"
         style="fill:#008466;fill-opacity:1;stroke:#a8a8a8;stroke-width:0.701807;stroke-linecap:butt;stroke-linejoin:miter;stroke-miterlimit:4;stroke-dasharray:none;stroke-opacity:1" />
      <path
         style="fill:#008466;fill-opacity:1;stroke:#a8a8a8;stroke-width:0.701807;stroke-linecap:butt;stroke-linejoin:miter;stroke-miterlimit:4;stroke-dasharray:none;stroke-opacity:1"
         d="m 388.78406,88.524862 c -3.78,-0.214679 -2.57441,-3.109997 -0.22859,-2.947444 -0.0935,-4.256399 3.29753,-4.091497 3.56023,-0.08303 2.3108,0.426095 3.11784,2.434801 -1e-5,3.113498 -0.34399,3.931065 -3.51023,3.624037 -3.33163,-0.08303 z"
         id="path897"
         inkscape:connector-curvature="0"
         sodipodi:nodetypes="ccccc" />
      <path
         style="fill:#008466;fill-opacity:1;stroke:#a8a8a8;stroke-width:0.701807;stroke-linecap:butt;stroke-linejoin:miter;stroke-miterlimit:4;stroke-dasharray:none;stroke-opacity:1"
         d="m 364.4046,120.08587 c -3.78,-0.21468 -2.57441,-3.10999 -0.22859,-2.94744 -0.0935,-4.2564 3.29753,-4.0915 3.56023,-0.083 2.3108,0.42609 3.11784,2.4348 -1e-5,3.1135 -0.34399,3.93106 -3.51023,3.62403 -3.33163,-0.083 z"
         id="path899"
         inkscape:connector-curvature="0"
         sodipodi:nodetypes="ccccc" />
      <path
         sodipodi:nodetypes="ccccc"
         inkscape:connector-curvature="0"
         id="path901"
         d="m 388.78406,120.08587 c -3.78,-0.21468 -2.57441,-3.10999 -0.22859,-2.94744 -0.0935,-4.2564 3.29753,-4.0915 3.56023,-0.083 2.3108,0.42609 3.11784,2.4348 -1e-5,3.1135 -0.34399,3.93106 -3.51023,3.62403 -3.33163,-0.083 z"
         style="fill:#008466;fill-opacity:1;stroke:#a8a8a8;stroke-width:0.701807;stroke-linecap:butt;stroke-linejoin:miter;stroke-miterlimit:4;stroke-dasharray:none;stroke-opacity:1" />
      <path
         sodipodi:nodetypes="ccccc"
         inkscape:connector-curvature="0"
         id="path905"
         d="m 374.60499,106.81476 c -8.91113,-0.63416 -6.06904,-9.186938 -0.53891,-8.706756 -0.22034,-12.573414 7.77374,-12.086292 8.39304,-0.24526 5.44759,1.258686 7.35013,7.192416 -10e-6,9.197286 -0.81095,11.61237 -8.27517,10.70541 -7.85412,-0.24527 z"
         style="fill:#007359;fill-opacity:1;stroke:#a8a8a8;stroke-width:0.827035;stroke-linecap:butt;stroke-linejoin:miter;stroke-miterlimit:4;stroke-dasharray:none;stroke-opacity:1" />
      <path
         style="fill:#008466;fill-opacity:1;stroke:#a8a8a8;stroke-width:0.701807;stroke-linecap:butt;stroke-linejoin:miter;stroke-miterlimit:4;stroke-dasharray:none;stroke-opacity:1"
         d="m 376.68882,104.21087 c -3.78,-0.21468 -2.57441,-3.10999 -0.22859,-2.94744 -0.0935,-4.2564 3.29753,-4.0915 3.56023,-0.083 2.3108,0.42609 3.11784,2.4348 -1e-5,3.1135 -0.34399,3.93106 -3.51023,3.62403 -3.33163,-0.083 z"
         id="path907"
         inkscape:connector-curvature="0"
         sodipodi:nodetypes="ccccc" />
    </g>
    <rect
       style="fill:#e1e1e1;fill-opacity:1;stroke:#a8a8a8;stroke-width:1.32292;stroke-miterlimit:4;stroke-dasharray:none;stroke-opacity:1"
       id="rect909"
       width="35.712971"
       height="54.353722"
       x="360.02539"
       y="16.789431"
       ry="9.3420458" />
  </g>
</svg>
